<svg width="164" height="250" viewBox="0 0 164 250" fill="none" xmlns="http://www.w3.org/2000/svg">
<path fill-rule="evenodd" clip-rule="evenodd" d="M81.6993 250C126.821 250 163.399 213.422 163.399 168.301C163.399 128.862 140.929 93.4542 100.355 29.5154C94.5077 20.3018 88.285 10.4958 81.6993 0C75.1137 10.4959 68.891 20.3019 63.0442 29.5154C22.4695 93.4543 0 128.862 0 168.301C0 213.422 36.578 250 81.6993 250ZM115.827 209.838C121.935 213.364 133.105 205.453 140.776 192.167C148.446 178.881 149.713 165.252 143.605 161.725C132.341 155.222 127.262 164.203 120.65 175.895C120.003 177.04 119.34 178.211 118.656 179.396C117.564 181.287 116.449 183.098 115.38 184.835C108.938 195.298 104.141 203.091 115.827 209.838Z" fill="#027BD0"/>
</svg>
